<svg width="32" height="32" viewBox="0 0 32 32" fill="none" xmlns="http://www.w3.org/2000/svg">
<path fill-rule="evenodd" clip-rule="evenodd" d="M14.667 10.6667C14.667 9.93066 15.2643 9.33332 16.0003 9.33332C16.7363 9.33332 17.3337 9.93066 17.3337 10.6667C17.3337 11.4027 16.7363 12 16.0003 12C15.2643 12 14.667 11.4027 14.667 10.6667ZM14.667 14.6667C14.667 13.9307 15.2643 13.3333 16.0003 13.3333C16.7363 13.3333 17.3337 13.9307 17.3337 14.6667V21.3333C17.3337 22.0693 16.7363 22.6667 16.0003 22.6667C15.2643 22.6667 14.667 22.0693 14.667 21.3333V14.6667ZM16.0003 26.6667C10.119 26.6667 5.33366 21.8813 5.33366 16C5.33366 10.1187 10.119 5.33332 16.0003 5.33332C21.8817 5.33332 26.667 10.1187 26.667 16C26.667 21.8813 21.8817 26.6667 16.0003 26.6667ZM16.0003 2.66666C8.63633 2.66666 2.66699 8.63599 2.66699 16C2.66699 23.364 8.63633 29.3333 16.0003 29.3333C23.363 29.3333 29.3337 23.364 29.3337 16C29.3337 8.63599 23.363 2.66666 16.0003 2.66666Z" fill="black"/>
</svg>
