<svg width="26" height="26" viewBox="0 0 26 26" fill="none" xmlns="http://www.w3.org/2000/svg">
<g opacity="0.2">
<path fill-rule="evenodd" clip-rule="evenodd" d="M20.5833 18.9086L18.4167 17.9358V7.0916L20.5833 8.06444V18.9086ZM14.0833 8.06444L16.25 7.0916V17.9358L14.0833 18.9086V8.06444ZM9.75 7.0916L11.9167 8.06444V18.9086L9.75 17.9358V7.0916ZM5.41667 8.06444L7.58333 7.0916V17.9358L5.41667 18.9086V8.06444ZM22.1108 6.3766L17.7775 4.42877C17.7613 4.42119 17.7439 4.4201 17.7277 4.4136C17.6833 4.39627 17.6388 4.38435 17.5933 4.37244C17.5511 4.3616 17.5088 4.35185 17.4655 4.34752C17.4233 4.3421 17.381 4.34102 17.3377 4.34102C17.29 4.34102 17.2434 4.3421 17.1958 4.34752C17.1557 4.35185 17.1178 4.3616 17.0788 4.37135C17.0311 4.38327 16.9845 4.39627 16.9379 4.4136C16.9228 4.4201 16.9043 4.42119 16.8892 4.42877L13 6.17619L9.11083 4.42877C9.09458 4.42119 9.07725 4.4201 9.061 4.4136C9.01658 4.39627 8.97217 4.38435 8.92667 4.37244C8.88442 4.3616 8.84217 4.35185 8.79883 4.34752C8.75658 4.3421 8.71433 4.34102 8.671 4.34102C8.62333 4.34102 8.57675 4.3421 8.52908 4.34752C8.489 4.35185 8.45108 4.3616 8.41208 4.37135C8.36442 4.38327 8.31783 4.39627 8.27125 4.4136C8.25608 4.4201 8.23767 4.42119 8.2225 4.42877L3.88917 6.3766C3.50025 6.55102 3.25 6.93777 3.25 7.3646V20.5834C3.25 20.9507 3.43633 21.293 3.74508 21.4934C3.92275 21.6083 4.1275 21.6668 4.33333 21.6668C4.48392 21.6668 4.63558 21.6354 4.7775 21.5714L8.66667 19.824L12.5558 21.5714C12.5721 21.579 12.5894 21.5758 12.6068 21.5823C12.7335 21.6332 12.8646 21.6668 13 21.6668C13.1354 21.6668 13.2665 21.6332 13.3933 21.5823C13.4095 21.5758 13.429 21.579 13.4442 21.5714L17.3333 19.824L21.2225 21.5714C21.3644 21.6354 21.5161 21.6668 21.6667 21.6668C21.8725 21.6668 22.0772 21.6083 22.2549 21.4934C22.5637 21.293 22.75 20.9507 22.75 20.5834V7.3646C22.75 6.93777 22.4998 6.55102 22.1108 6.3766Z" fill="black"/>
</g>
</svg>
