<svg width="26" height="26" viewBox="0 0 26 26" fill="none" xmlns="http://www.w3.org/2000/svg">
<g opacity="0.2">
<path fill-rule="evenodd" clip-rule="evenodd" d="M23.8337 20.5833C23.8337 21.1813 23.3494 21.6667 22.7503 21.6667C22.1512 21.6667 21.667 21.1813 21.667 20.5833C21.667 18.7915 20.2088 17.3333 18.417 17.3333C17.6771 17.3333 16.974 17.5868 16.4063 18.0364C16.9957 19.1154 17.3337 20.3526 17.3337 21.6667C17.3337 22.2647 16.8494 22.75 16.2503 22.75C15.6512 22.75 15.167 22.2647 15.167 21.6667C15.167 18.6799 12.7371 16.25 9.75033 16.25C6.76358 16.25 4.33366 18.6799 4.33366 21.6667C4.33366 22.2647 3.84941 22.75 3.25033 22.75C2.65124 22.75 2.16699 22.2647 2.16699 21.6667C2.16699 17.485 5.56974 14.0833 9.75033 14.0833C11.8379 14.0833 13.7294 14.9316 15.102 16.2998C16.0434 15.5718 17.2026 15.1667 18.417 15.1667C21.4037 15.1667 23.8337 17.5966 23.8337 20.5833ZM18.417 9.75C19.015 9.75 19.5003 10.2364 19.5003 10.8333C19.5003 11.4303 19.015 11.9167 18.417 11.9167C17.819 11.9167 17.3337 11.4303 17.3337 10.8333C17.3337 10.2364 17.819 9.75 18.417 9.75ZM18.417 14.0833C20.2088 14.0833 21.667 12.6252 21.667 10.8333C21.667 9.0415 20.2088 7.58333 18.417 7.58333C16.6252 7.58333 15.167 9.0415 15.167 10.8333C15.167 12.6252 16.6252 14.0833 18.417 14.0833ZM9.75033 5.41667C10.9452 5.41667 11.917 6.38842 11.917 7.58333C11.917 8.77825 10.9452 9.75 9.75033 9.75C8.55541 9.75 7.58366 8.77825 7.58366 7.58333C7.58366 6.38842 8.55541 5.41667 9.75033 5.41667ZM9.75033 11.9167C12.1402 11.9167 14.0837 9.97317 14.0837 7.58333C14.0837 5.1935 12.1402 3.25 9.75033 3.25C7.36049 3.25 5.41699 5.1935 5.41699 7.58333C5.41699 9.97317 7.36049 11.9167 9.75033 11.9167Z" fill="black"/>
</g>
</svg>
