<svg width="26" height="26" viewBox="0 0 26 26" fill="none" xmlns="http://www.w3.org/2000/svg">
<path fill-rule="evenodd" clip-rule="evenodd" d="M20.583 22.6296C20.583 23.2941 20.0642 23.8333 19.4223 23.8333C18.7804 23.8333 18.2616 23.2941 18.2616 22.6296C18.2616 19.311 15.6581 16.6111 12.458 16.6111C9.25792 16.6111 6.65444 19.311 6.65444 22.6296C6.65444 23.2941 6.1356 23.8333 5.49372 23.8333C4.85185 23.8333 4.33301 23.2941 4.33301 22.6296C4.33301 17.9833 7.97881 14.2037 12.458 14.2037C16.9372 14.2037 20.583 17.9833 20.583 22.6296ZM12.458 4.57408C13.7383 4.57408 14.7794 5.6538 14.7794 6.98149C14.7794 8.30917 13.7383 9.38889 12.458 9.38889C11.1777 9.38889 10.1366 8.30917 10.1366 6.98149C10.1366 5.6538 11.1777 4.57408 12.458 4.57408ZM12.458 11.7963C15.0185 11.7963 17.1009 9.63686 17.1009 6.98149C17.1009 4.32612 15.0185 2.16667 12.458 2.16667C9.89747 2.16667 7.81515 4.32612 7.81515 6.98149C7.81515 9.63686 9.89747 11.7963 12.458 11.7963Z" fill="black"/>
</svg>
